<svg xmlns="http://www.w3.org/2000/svg" xmlns:xlink="http://www.w3.org/1999/xlink" width="500" zoomAndPan="magnify" viewBox="0 0 375 374.999991" height="500" preserveAspectRatio="xMidYMid meet" version="1.2"><defs><clipPath id="d02707aea8"><path d="M 62.878906 58.152344 L 298.792969 58.152344 L 298.792969 287.785156 L 62.878906 287.785156 Z M 62.878906 58.152344 "/></clipPath><clipPath id="1bb732f6ea"><path d="M 180.734375 58.152344 C 115.644531 58.152344 62.878906 109.558594 62.878906 172.96875 C 62.878906 236.382812 115.644531 287.785156 180.734375 287.785156 C 245.824219 287.785156 298.589844 236.382812 298.589844 172.96875 C 298.589844 109.558594 245.824219 58.152344 180.734375 58.152344 Z M 180.734375 58.152344 "/></clipPath></defs><g id="792c2c048e"><g clip-rule="nonzero" clip-path="url(#d02707aea8)"><g clip-rule="nonzero" clip-path="url(#1bb732f6ea)"><path style=" stroke:none;fill-rule:nonzero;fill:#e5e2dd;fill-opacity:1;" d="M 62.878906 58.152344 L 298.792969 58.152344 L 298.792969 287.785156 L 62.878906 287.785156 Z M 62.878906 58.152344 "/></g></g><g style="fill:#3b493e;fill-opacity:1;"><g transform="translate(26.13459, 220.969884)"><path style="stroke:none" d="M 108.5 16.703125 C 112.019531 16.703125 115.15625 15.96875 117.90625 14.5 C 120.664062 13.039062 122.691406 11.609375 123.984375 10.203125 L 124.859375 11.609375 C 123.804688 12.773438 122.164062 14.296875 119.9375 16.171875 C 117.707031 18.054688 115.066406 19.757812 112.015625 21.28125 C 108.972656 22.800781 105.691406 23.5625 102.171875 23.5625 C 97.710938 23.5625 93.867188 22.414062 90.640625 20.125 C 87.421875 17.84375 84.609375 14.941406 82.203125 11.421875 C 79.804688 7.910156 77.550781 4.28125 75.4375 0.53125 C 71.6875 1.351562 67.878906 1.765625 64.015625 1.765625 C 63.660156 1.765625 63.304688 1.765625 62.953125 1.765625 C 55.097656 1.640625 47.769531 -0.0859375 40.96875 -3.421875 C 34.175781 -6.765625 28.226562 -11.304688 23.125 -17.046875 C 18.019531 -22.796875 14.003906 -29.453125 11.078125 -37.015625 C 8.148438 -44.578125 6.6875 -52.695312 6.6875 -61.375 C 6.6875 -70.050781 8.179688 -78.195312 11.171875 -85.8125 C 14.160156 -93.4375 18.257812 -100.148438 23.46875 -105.953125 C 28.6875 -111.753906 34.785156 -116.296875 41.765625 -119.578125 C 48.742188 -122.867188 56.160156 -124.515625 64.015625 -124.515625 C 71.984375 -124.515625 79.425781 -122.867188 86.34375 -119.578125 C 93.257812 -116.296875 99.351562 -111.753906 104.625 -105.953125 C 109.90625 -100.148438 114.007812 -93.4375 116.9375 -85.8125 C 119.875 -78.195312 121.34375 -70.050781 121.34375 -61.375 C 121.34375 -51.875 119.582031 -43.019531 116.0625 -34.8125 C 112.550781 -26.613281 107.71875 -19.550781 101.5625 -13.625 C 95.40625 -7.707031 88.398438 -3.457031 80.546875 -0.875 C 84.054688 3.8125 88.007812 7.882812 92.40625 11.34375 C 96.8125 14.800781 102.175781 16.585938 108.5 16.703125 Z M 64.015625 0.171875 C 67.523438 0.171875 70.984375 -0.410156 74.390625 -1.578125 C 71.929688 -6.035156 69.554688 -10.429688 67.265625 -14.765625 C 64.984375 -19.109375 62.460938 -22.65625 59.703125 -25.40625 C 56.953125 -28.164062 53.640625 -29.546875 49.765625 -29.546875 C 47.535156 -29.546875 45.539062 -28.691406 43.78125 -26.984375 C 42.03125 -25.285156 41.15625 -23.207031 41.15625 -20.75 C 41.15625 -16.644531 42.414062 -13.066406 44.9375 -10.015625 C 47.457031 -6.972656 50.445312 -4.570312 53.90625 -2.8125 C 57.363281 -1.050781 60.441406 -0.0546875 63.140625 0.171875 C 63.253906 0.171875 63.398438 0.171875 63.578125 0.171875 C 63.753906 0.171875 63.898438 0.171875 64.015625 0.171875 Z M 47.828125 -31.125 C 52.398438 -31.125 56.414062 -29.71875 59.875 -26.90625 C 63.332031 -24.09375 66.554688 -20.546875 69.546875 -16.265625 C 72.535156 -11.984375 75.613281 -7.675781 78.78125 -3.34375 C 84.53125 -6.039062 89.660156 -10.257812 94.171875 -16 C 98.679688 -21.75 102.195312 -28.488281 104.71875 -36.21875 C 107.238281 -43.957031 108.5 -52.34375 108.5 -61.375 C 108.5 -69.8125 107.351562 -77.753906 105.0625 -85.203125 C 102.78125 -92.648438 99.585938 -99.1875 95.484375 -104.8125 C 91.390625 -110.4375 86.671875 -114.859375 81.328125 -118.078125 C 75.992188 -121.304688 70.222656 -122.921875 64.015625 -122.921875 C 57.921875 -122.921875 52.175781 -121.304688 46.78125 -118.078125 C 41.382812 -114.859375 36.632812 -110.4375 32.53125 -104.8125 C 28.425781 -99.1875 25.226562 -92.648438 22.9375 -85.203125 C 20.65625 -77.753906 19.515625 -69.8125 19.515625 -61.375 C 19.515625 -51.175781 21.15625 -41.765625 24.4375 -33.140625 C 27.726562 -24.523438 32.128906 -17.40625 37.640625 -11.78125 C 36.109375 -14.363281 35.34375 -17.0625 35.34375 -19.875 C 35.34375 -23.382812 36.601562 -26.132812 39.125 -28.125 C 41.644531 -30.125 44.546875 -31.125 47.828125 -31.125 Z M 47.828125 -31.125 "/></g></g><g style="fill:#3b493e;fill-opacity:1;"><g transform="translate(140.244204, 303.353469)"><path style="stroke:none" d="M 83.28125 -13.296875 C 83.695312 -10.023438 84.539062 -7.226562 85.8125 -4.90625 C 87.082031 -2.582031 89.828125 -1.421875 94.046875 -1.421875 L 94.046875 0 C 91.617188 0 88.953125 0 86.046875 0 C 83.148438 0 80.457031 0 77.96875 0 C 75.488281 0 73.566406 0 72.203125 0 C 72.203125 -1.582031 72.117188 -4.085938 71.953125 -7.515625 C 71.796875 -10.953125 71.425781 -14.804688 70.84375 -19.078125 C 70.269531 -23.347656 69.398438 -27.703125 68.234375 -32.140625 C 67.078125 -36.578125 65.519531 -40.691406 63.5625 -44.484375 C 61.613281 -48.285156 59.1875 -51.347656 56.28125 -53.671875 C 53.382812 -55.992188 49.820312 -57.15625 45.59375 -57.15625 C 39.894531 -57.15625 35.359375 -54.625 31.984375 -49.5625 C 31.878906 -49.5625 31.773438 -49.453125 31.671875 -49.234375 C 31.554688 -48.921875 31.445312 -48.710938 31.34375 -48.609375 C 29.976562 -46.390625 28.925781 -43.90625 28.1875 -41.15625 C 27.445312 -38.414062 27.078125 -35.359375 27.078125 -31.984375 L 27.078125 -15.828125 C 27.078125 -11.609375 27.414062 -8.492188 28.09375 -6.484375 C 28.78125 -4.484375 29.96875 -3.140625 31.65625 -2.453125 C 33.351562 -1.765625 35.675781 -1.421875 38.625 -1.421875 L 38.625 0 C 33.25 0 27.65625 0 21.84375 0 C 16.039062 0 10.078125 0 3.953125 0 L 3.953125 -1.421875 C 6.910156 -1.421875 9.234375 -1.765625 10.921875 -2.453125 C 12.609375 -3.140625 13.796875 -4.484375 14.484375 -6.484375 C 15.171875 -8.492188 15.515625 -11.609375 15.515625 -15.828125 L 15.515625 -94.6875 C 15.515625 -98.800781 15.171875 -101.882812 14.484375 -103.9375 C 13.796875 -106 12.609375 -107.347656 10.921875 -107.984375 C 9.234375 -108.617188 6.910156 -108.9375 3.953125 -108.9375 L 3.953125 -110.515625 L 15.515625 -110.515625 C 19.835938 -110.515625 24.769531 -110.773438 30.3125 -111.296875 C 35.851562 -111.828125 41 -112.09375 45.75 -112.09375 C 50.289062 -112.09375 54.859375 -111.773438 59.453125 -111.140625 C 64.046875 -110.515625 68.265625 -109.328125 72.109375 -107.578125 C 75.960938 -105.835938 79.023438 -103.359375 81.296875 -100.140625 C 83.566406 -96.921875 84.703125 -92.726562 84.703125 -87.5625 C 84.703125 -83.019531 83.859375 -79.242188 82.171875 -76.234375 C 80.484375 -73.222656 78.238281 -70.820312 75.4375 -69.03125 C 72.644531 -67.238281 69.613281 -65.835938 66.34375 -64.828125 C 63.070312 -63.828125 59.851562 -63.035156 56.6875 -62.453125 C 53.519531 -61.878906 50.722656 -61.328125 48.296875 -60.796875 C 45.867188 -60.265625 43.597656 -59.421875 41.484375 -58.265625 C 43.066406 -58.796875 44.597656 -59.140625 46.078125 -59.296875 C 47.554688 -59.453125 48.925781 -59.53125 50.1875 -59.53125 C 56.414062 -59.53125 61.5625 -58.15625 65.625 -55.40625 C 69.6875 -52.664062 72.90625 -49.050781 75.28125 -44.5625 C 77.65625 -40.082031 79.445312 -35.125 80.65625 -29.6875 C 81.875 -24.25 82.75 -18.785156 83.28125 -13.296875 Z M 30.234375 -49.5625 C 32.347656 -53.039062 34.988281 -55.804688 38.15625 -57.859375 C 41.320312 -59.921875 44.539062 -61.375 47.8125 -62.21875 C 51.71875 -63.164062 55.625 -64.484375 59.53125 -66.171875 C 63.4375 -67.867188 66.679688 -70.351562 69.265625 -73.625 C 71.847656 -76.894531 73.140625 -81.484375 73.140625 -87.390625 C 73.140625 -93.617188 71.738281 -98.394531 68.9375 -101.71875 C 66.144531 -105.050781 62.640625 -107.375 58.421875 -108.6875 C 54.203125 -110.007812 49.976562 -110.671875 45.75 -110.671875 C 42.269531 -110.671875 39 -110.535156 35.9375 -110.265625 C 32.875 -110.003906 29.921875 -109.769531 27.078125 -109.5625 L 27.078125 -42.59375 C 27.816406 -45.019531 28.816406 -47.285156 30.078125 -49.390625 C 30.078125 -49.285156 30.128906 -49.34375 30.234375 -49.5625 Z M 30.234375 -49.5625 "/></g></g><g style="fill:#3b493e;fill-opacity:1;"><g transform="translate(118.570719, 185.856279)"><path style="stroke:none" d="M 77.703125 -129.765625 L 77.703125 -131.65625 L 119.015625 -131.65625 L 119.015625 -129.765625 C 114.109375 -129.765625 109.863281 -128.757812 106.28125 -126.75 C 102.695312 -124.738281 99.648438 -120.082031 97.140625 -112.78125 L 65.828125 -20.375 C 68.585938 -14.84375 71.445312 -10.347656 74.40625 -6.890625 C 77.363281 -3.429688 80.347656 -1.703125 83.359375 -1.703125 L 83.359375 0 C 77.078125 0 71.671875 -1.410156 67.140625 -4.234375 C 62.617188 -7.066406 58.503906 -11.5 54.796875 -17.53125 C 51.085938 -23.570312 47.40625 -31.367188 43.75 -40.921875 C 40.101562 -50.484375 36.019531 -61.988281 31.5 -75.4375 C 29.363281 -81.476562 27.222656 -87.671875 25.078125 -94.015625 C 22.941406 -100.367188 20.644531 -106.25 18.1875 -111.65625 C 15.738281 -117.0625 13.035156 -121.429688 10.078125 -124.765625 C 7.128906 -128.097656 3.894531 -129.765625 0.375 -129.765625 C 0.375 -130.015625 0.375 -130.328125 0.375 -130.703125 C 0.375 -131.078125 0.375 -131.394531 0.375 -131.65625 C 7.539062 -131.65625 13.351562 -130.488281 17.8125 -128.15625 C 22.28125 -125.832031 25.894531 -122.46875 28.65625 -118.0625 C 31.425781 -113.664062 33.910156 -108.289062 36.109375 -101.9375 C 38.316406 -95.59375 40.800781 -88.394531 43.5625 -80.34375 C 45.582031 -74.1875 47.722656 -67.679688 49.984375 -60.828125 C 52.242188 -53.972656 54.597656 -47.210938 57.046875 -40.546875 C 59.503906 -33.890625 62.050781 -27.851562 64.6875 -22.4375 L 95.4375 -112.78125 C 97.070312 -117.5625 97.320312 -121.175781 96.1875 -123.625 C 95.0625 -126.082031 92.894531 -127.71875 89.6875 -128.53125 C 86.476562 -129.351562 82.484375 -129.765625 77.703125 -129.765625 Z M 77.703125 -129.765625 "/></g></g><g style="fill:#3b493e;fill-opacity:1;"><g transform="translate(205.677976, 219.678151)"><path style="stroke:none" d="M 99.6875 -24.203125 L 100.875 -23.34375 C 99.0625 -19.9375 96.445312 -16.269531 93.03125 -12.34375 C 89.625 -8.425781 85.394531 -5.101562 80.34375 -2.375 C 75.289062 0.34375 69.242188 1.703125 62.203125 1.703125 C 53.566406 1.703125 45.835938 0.113281 39.015625 -3.0625 C 32.203125 -6.25 26.410156 -10.625 21.640625 -16.1875 C 16.867188 -21.75 13.203125 -28.222656 10.640625 -35.609375 C 8.085938 -42.992188 6.8125 -50.945312 6.8125 -59.46875 C 6.8125 -67.875 8.085938 -75.769531 10.640625 -83.15625 C 13.203125 -90.539062 16.78125 -97.046875 21.375 -102.671875 C 25.976562 -108.296875 31.40625 -112.695312 37.65625 -115.875 C 43.90625 -119.050781 50.664062 -120.640625 57.9375 -120.640625 C 63.726562 -120.640625 68.953125 -119.785156 73.609375 -118.078125 C 78.273438 -116.378906 82.253906 -114.195312 85.546875 -111.53125 C 88.835938 -108.863281 91.332031 -106.078125 93.03125 -103.171875 C 94.738281 -100.273438 95.59375 -97.632812 95.59375 -95.25 C 95.59375 -93.207031 94.882812 -91.472656 93.46875 -90.046875 C 92.050781 -88.628906 90.375 -87.921875 88.4375 -87.921875 C 86.394531 -87.921875 84.660156 -88.628906 83.234375 -90.046875 C 81.816406 -91.472656 81.109375 -93.207031 81.109375 -95.25 C 80.992188 -98.882812 80.140625 -102.519531 78.546875 -106.15625 C 76.960938 -109.789062 74.492188 -112.859375 71.140625 -115.359375 C 67.796875 -117.859375 63.394531 -119.109375 57.9375 -119.109375 C 50.101562 -119.109375 43.285156 -116.410156 37.484375 -111.015625 C 31.691406 -105.617188 27.203125 -98.40625 24.015625 -89.375 C 20.835938 -80.34375 19.25 -70.375 19.25 -59.46875 C 19.25 -48.445312 20.925781 -38.421875 24.28125 -29.390625 C 27.632812 -20.359375 32.519531 -13.171875 38.9375 -7.828125 C 45.351562 -2.492188 53.109375 0.171875 62.203125 0.171875 C 69.128906 0.171875 75.0625 -1.191406 80 -3.921875 C 84.945312 -6.648438 89.007812 -9.882812 92.1875 -13.625 C 95.375 -17.375 97.875 -20.898438 99.6875 -24.203125 Z M 99.6875 -24.203125 "/></g></g></g></svg>